# xmcd
# Track frame offsets:
# 150
# 20982
# 43152
# 63937
# 81853
# 105369
# 125379
# 144595
# 165251
# 182025
# 197796
#
# Disc length: 2942 seconds
# Revision: 0
# Processed by: cddbd v1.4PL0 Copyright (c) Steve Scherf et al.
# Submitted via: VisiTrax 2.9.5.181 - For more info visit www.synapsa.com
#
DISCID=920b7c0b
DTITLE=BJ Miller - Girl Friend
DYEAR=2003
DGENRE=Blues
TTITLE0=Kansas City
TTITLE1=I Didn't Know He Was Your Man
TTITLE2=Tic Toc
TTITLE3=Do It In Slow Motion
TTITLE4=Mean To Me
TTITLE5=Gonna Get Me A Puppy
TTITLE6=Ain't Nobody (B-Grown or B-Gone)
TTITLE7=Good N'Plenty
TTITLE8=Livin' For The Weekend
TTITLE9=We'll Get It On (Say We Will)
TTITLE10=I Got 2 Go
EXTD=
EXTT0=
EXTT1=
EXTT2=
EXTT3=
EXTT4=
EXTT5=
EXTT6=
EXTT7=
EXTT8=
EXTT9=
EXTT10=
PLAYORDER=
